<?xml version="1.0" encoding="utf-8"?>
<!-- Generator: Adobe Illustrator 15.1.0, SVG Export Plug-In . SVG Version: 6.00 Build 0)  -->
<!DOCTYPE svg PUBLIC "-//W3C//DTD SVG 1.1//EN" "http://www.w3.org/Graphics/SVG/1.1/DTD/svg11.dtd">
<svg version="1.1" xmlns="http://www.w3.org/2000/svg" xmlns:xlink="http://www.w3.org/1999/xlink" x="0px" y="0px" width="54px"
	 height="30px" viewBox="0 0 54 30" enable-background="new 0 0 54 30" xml:space="preserve">
<g id="_x31_00_x25_" display="none">
	<rect x="9.755" y="5.476" fill="none" stroke="#8CC63F" stroke-width="0.25" width="38.803" height="19.024"/>
	<path display="inline" fill="#767875" d="M49.08,0.034H9.233c-2.712,0-4.919,2.207-4.919,4.92v4.202h-2.27
		C0.917,9.156,0,10.073,0,11.2v8.521c0,1.127,0.917,2.043,2.044,2.043h2.27v3.258c0,2.713,2.207,4.92,4.919,4.92H49.08
		c2.713,0,4.92-2.207,4.92-4.92V4.954C54,2.241,51.793,0.034,49.08,0.034z M2.357,19.406v-7.893h1.957v7.893H2.357z M51.559,25.021
		c0,1.366-1.112,2.479-2.479,2.479H9.233c-1.366,0-2.478-1.112-2.478-2.479V4.954c0-1.367,1.112-2.479,2.478-2.479H49.08
		c1.366,0,2.479,1.112,2.479,2.479V25.021z"/>
	<g display="inline">
		<path fill="#767875" d="M9.755,23.301V6.629c0-0.662,0.537-1.198,1.199-1.198h3.014c0.662,0,1.198,0.537,1.198,1.198v16.671
			c0,0.662-0.537,1.199-1.198,1.199h-3.014C10.292,24.5,9.755,23.963,9.755,23.301z"/>
	</g>
	<g display="inline">
		<path fill="#767875" d="M18.104,23.301V6.629c0-0.662,0.537-1.198,1.198-1.198h3.015c0.661,0,1.198,0.537,1.198,1.198v16.671
			c0,0.662-0.537,1.199-1.198,1.199h-3.015C18.641,24.5,18.104,23.963,18.104,23.301z"/>
	</g>
	<g display="inline">
		<path fill="#767875" d="M26.451,23.301V6.629c0-0.662,0.537-1.198,1.199-1.198h3.014c0.662,0,1.198,0.537,1.198,1.198v16.671
			c0,0.662-0.536,1.199-1.198,1.199H27.65C26.988,24.5,26.451,23.963,26.451,23.301z"/>
	</g>
	<g display="inline">
		<path fill="#767875" d="M34.799,23.301V6.629c0-0.662,0.537-1.198,1.199-1.198h3.014c0.662,0,1.199,0.537,1.199,1.198v16.671
			c0,0.662-0.537,1.199-1.199,1.199h-3.014C35.336,24.5,34.799,23.963,34.799,23.301z"/>
	</g>
	<g display="inline">
		<path fill="#767875" d="M43.146,23.301V6.629c0-0.662,0.537-1.198,1.199-1.198h3.014c0.662,0,1.199,0.537,1.199,1.198v16.671
			c0,0.662-0.537,1.199-1.199,1.199h-3.014C43.684,24.5,43.146,23.963,43.146,23.301z"/>
	</g>
	<g id="Charge">
		<path display="inline" fill="#767875" d="M18.424,22.386c-0.552,0-1-0.447-1-1v-0.928h-3.138c-1.322,0-1.856-1.789-1.856-2.535
			s0.534-2.536,1.856-2.536h3.138v-0.845h-3.138c-1.322,0-1.856-1.789-1.856-2.535s0.534-2.535,1.856-2.535h3.138V8.545
			c0-0.552,0.448-1,1-1h3.424c3.633,0,6.155,1.49,7.054,4.121h16.559c0.553,0,1,0.448,1,1v4.625c0,0.553-0.447,1-1,1H28.902
			c-0.897,2.614-3.419,4.094-7.054,4.094H18.424z"/>
		<path display="inline" fill="#FFFFFF" d="M21.849,8.545c3.105,0,5.697,1.19,6.29,4.121h17.322v4.625H28.139
			c-0.593,2.931-3.185,4.094-6.29,4.094h-3.424v-1.928h-4.138c-0.473,0-0.856-1.062-0.856-1.535c0-0.472,0.383-1.536,0.856-1.536
			h4.138v-2.845h-4.138c-0.473,0-0.856-1.062-0.856-1.535c0-0.474,0.383-1.535,0.856-1.535h4.138V8.545H21.849 M21.849,6.545h-3.424
			c-1.08,0-1.96,0.856-1.999,1.927h-2.139c-2.018,0-2.856,2.302-2.856,3.535c0,0.845,0.394,2.194,1.292,2.958
			c-0.898,0.764-1.292,2.113-1.292,2.958c0,1.232,0.838,3.535,2.856,3.535h2.139c0.038,1.071,0.918,1.928,1.999,1.928h3.424
			c3.795,0,6.526-1.471,7.733-4.094h15.879c1.104,0,2-0.896,2-2v-4.625c0-1.104-0.896-2-2-2H29.575
			C28.354,8.057,25.581,6.545,21.849,6.545L21.849,6.545z"/>
	</g>
</g>
<g id="_x38_0_x25_" display="none">
	<rect x="9.755" y="5.476" fill="none" stroke="#8CC63F" stroke-width="0.25" width="38.803" height="19.024"/>
	<path display="inline" fill="#767875" d="M49.08,0.034H9.233c-2.712,0-4.919,2.207-4.919,4.92v4.202h-2.27
		C0.917,9.156,0,10.073,0,11.2v8.521c0,1.127,0.917,2.043,2.044,2.043h2.27v3.258c0,2.713,2.207,4.92,4.919,4.92H49.08
		c2.713,0,4.92-2.207,4.92-4.92V4.954C54,2.241,51.793,0.034,49.08,0.034z M2.357,19.406v-7.893h1.957v7.893H2.357z M51.559,25.021
		c0,1.366-1.112,2.479-2.479,2.479H9.233c-1.366,0-2.478-1.112-2.478-2.479V4.954c0-1.367,1.112-2.479,2.478-2.479H49.08
		c1.366,0,2.479,1.112,2.479,2.479V25.021z"/>
	<g display="inline">
		<path fill="#767875" d="M18.104,23.301V6.629c0-0.662,0.537-1.198,1.198-1.198h3.015c0.661,0,1.198,0.537,1.198,1.198v16.671
			c0,0.662-0.537,1.199-1.198,1.199h-3.015C18.641,24.5,18.104,23.963,18.104,23.301z"/>
	</g>
	<g display="inline">
		<path fill="#767875" d="M26.451,23.301V6.629c0-0.662,0.537-1.198,1.199-1.198h3.014c0.662,0,1.198,0.537,1.198,1.198v16.671
			c0,0.662-0.536,1.199-1.198,1.199H27.65C26.988,24.5,26.451,23.963,26.451,23.301z"/>
	</g>
	<g display="inline">
		<path fill="#767875" d="M34.799,23.301V6.629c0-0.662,0.537-1.198,1.199-1.198h3.014c0.662,0,1.199,0.537,1.199,1.198v16.671
			c0,0.662-0.537,1.199-1.199,1.199h-3.014C35.336,24.5,34.799,23.963,34.799,23.301z"/>
	</g>
	<g display="inline">
		<path fill="#767875" d="M43.146,23.301V6.629c0-0.662,0.537-1.198,1.199-1.198h3.014c0.662,0,1.199,0.537,1.199,1.198v16.671
			c0,0.662-0.537,1.199-1.199,1.199h-3.014C43.684,24.5,43.146,23.963,43.146,23.301z"/>
	</g>
	<g id="Charge_1_">
		<path display="inline" fill="#767875" d="M18.424,22.386c-0.552,0-1-0.447-1-1v-0.928h-3.138c-1.322,0-1.856-1.789-1.856-2.535
			s0.534-2.536,1.856-2.536h3.138v-0.845h-3.138c-1.322,0-1.856-1.789-1.856-2.535s0.534-2.535,1.856-2.535h3.138V8.545
			c0-0.552,0.448-1,1-1h3.424c3.633,0,6.155,1.49,7.054,4.121h16.559c0.553,0,1,0.448,1,1v4.625c0,0.553-0.447,1-1,1H28.902
			c-0.897,2.614-3.419,4.094-7.054,4.094H18.424z"/>
		<path display="inline" fill="#FFFFFF" d="M21.849,8.545c3.105,0,5.697,1.19,6.29,4.121h17.322v4.625H28.139
			c-0.593,2.931-3.185,4.094-6.29,4.094h-3.424v-1.928h-4.138c-0.473,0-0.856-1.062-0.856-1.535c0-0.472,0.383-1.536,0.856-1.536
			h4.138v-2.845h-4.138c-0.473,0-0.856-1.062-0.856-1.535c0-0.474,0.383-1.535,0.856-1.535h4.138V8.545H21.849 M21.849,6.545h-3.424
			c-1.08,0-1.96,0.856-1.999,1.927h-2.139c-2.018,0-2.856,2.302-2.856,3.535c0,0.845,0.394,2.194,1.292,2.958
			c-0.898,0.764-1.292,2.113-1.292,2.958c0,1.232,0.838,3.535,2.856,3.535h2.139c0.038,1.071,0.918,1.928,1.999,1.928h3.424
			c3.795,0,6.526-1.471,7.733-4.094h15.879c1.104,0,2-0.896,2-2v-4.625c0-1.104-0.896-2-2-2H29.575
			C28.354,8.057,25.581,6.545,21.849,6.545L21.849,6.545z"/>
	</g>
</g>
<g id="_x36_0_x25_" display="none">
	<rect x="9.755" y="5.476" fill="none" stroke="#8CC63F" stroke-width="0.25" width="38.803" height="19.024"/>
	<path display="inline" fill="#767875" d="M49.08,0.034H9.233c-2.712,0-4.919,2.207-4.919,4.92v4.202h-2.27
		C0.917,9.156,0,10.073,0,11.2v8.521c0,1.127,0.917,2.043,2.044,2.043h2.27v3.258c0,2.713,2.207,4.92,4.919,4.92H49.08
		c2.713,0,4.92-2.207,4.92-4.92V4.954C54,2.241,51.793,0.034,49.08,0.034z M2.357,19.406v-7.893h1.957v7.893H2.357z M51.559,25.021
		c0,1.366-1.112,2.479-2.479,2.479H9.233c-1.366,0-2.478-1.112-2.478-2.479V4.954c0-1.367,1.112-2.479,2.478-2.479H49.08
		c1.366,0,2.479,1.112,2.479,2.479V25.021z"/>
	<g display="inline">
		<path fill="#767875" d="M26.451,23.301V6.629c0-0.662,0.537-1.198,1.199-1.198h3.014c0.662,0,1.198,0.537,1.198,1.198v16.671
			c0,0.662-0.536,1.199-1.198,1.199H27.65C26.988,24.5,26.451,23.963,26.451,23.301z"/>
	</g>
	<g display="inline">
		<path fill="#767875" d="M34.799,23.301V6.629c0-0.662,0.537-1.198,1.199-1.198h3.014c0.662,0,1.199,0.537,1.199,1.198v16.671
			c0,0.662-0.537,1.199-1.199,1.199h-3.014C35.336,24.5,34.799,23.963,34.799,23.301z"/>
	</g>
	<g display="inline">
		<path fill="#767875" d="M43.146,23.301V6.629c0-0.662,0.537-1.198,1.199-1.198h3.014c0.662,0,1.199,0.537,1.199,1.198v16.671
			c0,0.662-0.537,1.199-1.199,1.199h-3.014C43.684,24.5,43.146,23.963,43.146,23.301z"/>
	</g>
	<g id="Charge_2_">
		<path display="inline" fill="#767875" d="M18.424,22.386c-0.552,0-1-0.447-1-1v-0.928h-3.138c-1.322,0-1.856-1.789-1.856-2.535
			s0.534-2.536,1.856-2.536h3.138v-0.845h-3.138c-1.322,0-1.856-1.789-1.856-2.535s0.534-2.535,1.856-2.535h3.138V8.545
			c0-0.552,0.448-1,1-1h3.424c3.633,0,6.155,1.49,7.054,4.121h16.559c0.553,0,1,0.448,1,1v4.625c0,0.553-0.447,1-1,1H28.902
			c-0.897,2.614-3.419,4.094-7.054,4.094H18.424z"/>
		<path display="inline" fill="#FFFFFF" d="M21.849,8.545c3.105,0,5.697,1.19,6.29,4.121h17.322v4.625H28.139
			c-0.593,2.931-3.185,4.094-6.29,4.094h-3.424v-1.928h-4.138c-0.473,0-0.856-1.062-0.856-1.535c0-0.472,0.383-1.536,0.856-1.536
			h4.138v-2.845h-4.138c-0.473,0-0.856-1.062-0.856-1.535c0-0.474,0.383-1.535,0.856-1.535h4.138V8.545H21.849 M21.849,6.545h-3.424
			c-1.08,0-1.96,0.856-1.999,1.927h-2.139c-2.018,0-2.856,2.302-2.856,3.535c0,0.845,0.394,2.194,1.292,2.958
			c-0.898,0.764-1.292,2.113-1.292,2.958c0,1.232,0.838,3.535,2.856,3.535h2.139c0.038,1.071,0.918,1.928,1.999,1.928h3.424
			c3.795,0,6.526-1.471,7.733-4.094h15.879c1.104,0,2-0.896,2-2v-4.625c0-1.104-0.896-2-2-2H29.575
			C28.354,8.057,25.581,6.545,21.849,6.545L21.849,6.545z"/>
	</g>
</g>
<g id="_x34_0_x25_" display="none">
	<rect x="9.755" y="5.476" fill="none" stroke="#8CC63F" stroke-width="0.25" width="38.803" height="19.024"/>
	<path display="inline" fill="#767875" d="M49.08,0.034H9.233c-2.712,0-4.919,2.207-4.919,4.92v4.202h-2.27
		C0.917,9.156,0,10.073,0,11.2v8.521c0,1.127,0.917,2.043,2.044,2.043h2.27v3.258c0,2.713,2.207,4.92,4.919,4.92H49.08
		c2.713,0,4.92-2.207,4.92-4.92V4.954C54,2.241,51.793,0.034,49.08,0.034z M2.357,19.406v-7.893h1.957v7.893H2.357z M51.559,25.021
		c0,1.366-1.112,2.479-2.479,2.479H9.233c-1.366,0-2.478-1.112-2.478-2.479V4.954c0-1.367,1.112-2.479,2.478-2.479H49.08
		c1.366,0,2.479,1.112,2.479,2.479V25.021z"/>
	<g display="inline">
		<path fill="#F26522" d="M34.799,23.301V6.629c0-0.662,0.537-1.198,1.199-1.198h3.014c0.662,0,1.199,0.537,1.199,1.198v16.671
			c0,0.662-0.537,1.199-1.199,1.199h-3.014C35.336,24.5,34.799,23.963,34.799,23.301z"/>
	</g>
	<g display="inline">
		<path fill="#F26522" d="M43.146,23.301V6.629c0-0.662,0.537-1.198,1.199-1.198h3.014c0.662,0,1.199,0.537,1.199,1.198v16.671
			c0,0.662-0.537,1.199-1.199,1.199h-3.014C43.684,24.5,43.146,23.963,43.146,23.301z"/>
	</g>
	<g id="Charge_3_">
		<path display="inline" fill="#767875" d="M18.424,22.386c-0.552,0-1-0.447-1-1v-0.928h-3.138c-1.322,0-1.856-1.789-1.856-2.535
			s0.534-2.536,1.856-2.536h3.138v-0.845h-3.138c-1.322,0-1.856-1.789-1.856-2.535s0.534-2.535,1.856-2.535h3.138V8.545
			c0-0.552,0.448-1,1-1h3.424c3.633,0,6.155,1.49,7.054,4.121h16.559c0.553,0,1,0.448,1,1v4.625c0,0.553-0.447,1-1,1H28.902
			c-0.897,2.614-3.419,4.094-7.054,4.094H18.424z"/>
		<path display="inline" fill="#FFFFFF" d="M21.849,8.545c3.105,0,5.697,1.19,6.29,4.121h17.322v4.625H28.139
			c-0.593,2.931-3.185,4.094-6.29,4.094h-3.424v-1.928h-4.138c-0.473,0-0.856-1.062-0.856-1.535c0-0.472,0.383-1.536,0.856-1.536
			h4.138v-2.845h-4.138c-0.473,0-0.856-1.062-0.856-1.535c0-0.474,0.383-1.535,0.856-1.535h4.138V8.545H21.849 M21.849,6.545h-3.424
			c-1.08,0-1.96,0.856-1.999,1.927h-2.139c-2.018,0-2.856,2.302-2.856,3.535c0,0.845,0.394,2.194,1.292,2.958
			c-0.898,0.764-1.292,2.113-1.292,2.958c0,1.232,0.838,3.535,2.856,3.535h2.139c0.038,1.071,0.918,1.928,1.999,1.928h3.424
			c3.795,0,6.526-1.471,7.733-4.094h15.879c1.104,0,2-0.896,2-2v-4.625c0-1.104-0.896-2-2-2H29.575
			C28.354,8.057,25.581,6.545,21.849,6.545L21.849,6.545z"/>
	</g>
</g>
<g id="_x32_0_x25_" display="none">
	<rect x="9.755" y="5.476" fill="none" stroke="#8CC63F" stroke-width="0.25" width="38.803" height="19.024"/>
	<path display="inline" fill="#767875" d="M49.08,0.034H9.233c-2.712,0-4.919,2.207-4.919,4.92v4.202h-2.27
		C0.917,9.156,0,10.073,0,11.2v8.521c0,1.127,0.917,2.043,2.044,2.043h2.27v3.258c0,2.713,2.207,4.92,4.919,4.92H49.08
		c2.713,0,4.92-2.207,4.92-4.92V4.954C54,2.241,51.793,0.034,49.08,0.034z M2.357,19.406v-7.893h1.957v7.893H2.357z M51.559,25.021
		c0,1.366-1.112,2.479-2.479,2.479H9.233c-1.366,0-2.478-1.112-2.478-2.479V4.954c0-1.367,1.112-2.479,2.478-2.479H49.08
		c1.366,0,2.479,1.112,2.479,2.479V25.021z"/>
	<g display="inline">
		<path fill="#ED1C24" d="M43.146,23.301V6.629c0-0.662,0.537-1.198,1.199-1.198h3.014c0.662,0,1.199,0.537,1.199,1.198v16.671
			c0,0.662-0.537,1.199-1.199,1.199h-3.014C43.684,24.5,43.146,23.963,43.146,23.301z"/>
	</g>
	<g id="Charge_4_">
		<path display="inline" fill="#767875" d="M18.424,22.386c-0.552,0-1-0.447-1-1v-0.928h-3.138c-1.322,0-1.856-1.789-1.856-2.535
			s0.534-2.536,1.856-2.536h3.138v-0.845h-3.138c-1.322,0-1.856-1.789-1.856-2.535s0.534-2.535,1.856-2.535h3.138V8.545
			c0-0.552,0.448-1,1-1h3.424c3.633,0,6.155,1.49,7.054,4.121h16.559c0.553,0,1,0.448,1,1v4.625c0,0.553-0.447,1-1,1H28.902
			c-0.897,2.614-3.419,4.094-7.054,4.094H18.424z"/>
		<path display="inline" fill="#FFFFFF" d="M21.849,8.545c3.105,0,5.697,1.19,6.29,4.121h17.322v4.625H28.139
			c-0.593,2.931-3.185,4.094-6.29,4.094h-3.424v-1.928h-4.138c-0.473,0-0.856-1.062-0.856-1.535c0-0.472,0.383-1.536,0.856-1.536
			h4.138v-2.845h-4.138c-0.473,0-0.856-1.062-0.856-1.535c0-0.474,0.383-1.535,0.856-1.535h4.138V8.545H21.849 M21.849,6.545h-3.424
			c-1.08,0-1.96,0.856-1.999,1.927h-2.139c-2.018,0-2.856,2.302-2.856,3.535c0,0.845,0.394,2.194,1.292,2.958
			c-0.898,0.764-1.292,2.113-1.292,2.958c0,1.232,0.838,3.535,2.856,3.535h2.139c0.038,1.071,0.918,1.928,1.999,1.928h3.424
			c3.795,0,6.526-1.471,7.733-4.094h15.879c1.104,0,2-0.896,2-2v-4.625c0-1.104-0.896-2-2-2H29.575
			C28.354,8.057,25.581,6.545,21.849,6.545L21.849,6.545z"/>
	</g>
</g>
<g id="_x30__x25_" display="none">
	<rect x="9.755" y="5.476" fill="none" stroke="#8CC63F" stroke-width="0.25" width="38.803" height="19.024"/>
	<path display="inline" fill="#767875" d="M49.08,0.034H9.233c-2.712,0-4.919,2.207-4.919,4.92v4.202h-2.27
		C0.917,9.156,0,10.073,0,11.2v8.521c0,1.127,0.917,2.043,2.044,2.043h2.27v3.258c0,2.713,2.207,4.92,4.919,4.92H49.08
		c2.713,0,4.92-2.207,4.92-4.92V4.954C54,2.241,51.793,0.034,49.08,0.034z M2.357,19.406v-7.893h1.957v7.893H2.357z M51.559,25.021
		c0,1.366-1.112,2.479-2.479,2.479H9.233c-1.366,0-2.478-1.112-2.478-2.479V4.954c0-1.367,1.112-2.479,2.478-2.479H49.08
		c1.366,0,2.479,1.112,2.479,2.479V25.021z"/>
	<g id="Charge_5_">
		<path display="inline" fill="#767875" d="M18.424,22.386c-0.552,0-1-0.447-1-1v-0.928h-3.138c-1.322,0-1.856-1.789-1.856-2.535
			s0.534-2.536,1.856-2.536h3.138v-0.845h-3.138c-1.322,0-1.856-1.789-1.856-2.535s0.534-2.535,1.856-2.535h3.138V8.545
			c0-0.552,0.448-1,1-1h3.424c3.633,0,6.155,1.49,7.054,4.121h16.559c0.553,0,1,0.448,1,1v4.625c0,0.553-0.447,1-1,1H28.902
			c-0.897,2.614-3.419,4.094-7.054,4.094H18.424z"/>
		<path display="inline" fill="#FFFFFF" d="M21.849,8.545c3.105,0,5.697,1.19,6.29,4.121h17.322v4.625H28.139
			c-0.593,2.931-3.185,4.094-6.29,4.094h-3.424v-1.928h-4.138c-0.473,0-0.856-1.062-0.856-1.535c0-0.472,0.383-1.536,0.856-1.536
			h4.138v-2.845h-4.138c-0.473,0-0.856-1.062-0.856-1.535c0-0.474,0.383-1.535,0.856-1.535h4.138V8.545H21.849 M21.849,6.545h-3.424
			c-1.08,0-1.96,0.856-1.999,1.927h-2.139c-2.018,0-2.856,2.302-2.856,3.535c0,0.845,0.394,2.194,1.292,2.958
			c-0.898,0.764-1.292,2.113-1.292,2.958c0,1.232,0.838,3.535,2.856,3.535h2.139c0.038,1.071,0.918,1.928,1.999,1.928h3.424
			c3.795,0,6.526-1.471,7.733-4.094h15.879c1.104,0,2-0.896,2-2v-4.625c0-1.104-0.896-2-2-2H29.575
			C28.354,8.057,25.581,6.545,21.849,6.545L21.849,6.545z"/>
	</g>
	<g id="Charge_6_" display="inline">
		<g>
			<path fill="#767875" d="M11.431,17.923c0-0.846,0.394-2.194,1.292-2.958c-0.898-0.764-1.292-2.112-1.292-2.958
				c0-1.232,0.838-3.535,2.856-3.535h0.88V6.629c0-0.662-0.537-1.198-1.198-1.198h-3.014c-0.662,0-1.199,0.537-1.199,1.198v16.671
				c0,0.662,0.537,1.199,1.199,1.199h3.014c0.662,0,1.198-0.537,1.198-1.199v-1.843h-0.88
				C12.269,21.458,11.431,19.155,11.431,17.923z"/>
			<path fill="#767875" d="M18.424,23.386c-0.106,0-0.208-0.015-0.31-0.03c0.03,0.635,0.546,1.145,1.188,1.145h3.015
				c0.661,0,1.198-0.537,1.198-1.199v-0.03c-0.532,0.068-1.082,0.115-1.666,0.115H18.424z"/>
			<path fill="#767875" d="M21.849,6.545c0.583,0,1.132,0.049,1.666,0.122V6.629c0-0.662-0.537-1.198-1.198-1.198h-3.015
				c-0.642,0-1.158,0.509-1.188,1.145c0.102-0.016,0.204-0.031,0.31-0.031H21.849z"/>
			<path fill="#767875" d="M29.575,10.667h2.287V6.629c0-0.662-0.536-1.198-1.198-1.198H27.65c-0.662,0-1.199,0.537-1.199,1.198
				v0.907C27.859,8.242,28.936,9.298,29.575,10.667z"/>
			<path fill="#767875" d="M26.451,22.426v0.875c0,0.662,0.537,1.199,1.199,1.199h3.014c0.662,0,1.198-0.537,1.198-1.199v-4.009
				h-2.28C28.944,20.678,27.871,21.73,26.451,22.426z"/>
			<path fill="#767875" d="M34.799,23.301c0,0.662,0.537,1.199,1.199,1.199h3.014c0.662,0,1.199-0.537,1.199-1.199v-4.009h-5.412
				V23.301z"/>
			<path fill="#767875" d="M40.211,6.629c0-0.662-0.537-1.198-1.199-1.198h-3.014c-0.662,0-1.199,0.537-1.199,1.198v4.037h5.412
				V6.629z"/>
			<path fill="#767875" d="M47.359,5.431h-3.014c-0.662,0-1.199,0.537-1.199,1.198v4.037h2.314c1.104,0,2,0.896,2,2v4.625
				c0,1.104-0.896,2-2,2h-2.314v4.009c0,0.662,0.537,1.199,1.199,1.199h3.014c0.662,0,1.199-0.537,1.199-1.199V6.629
				C48.559,5.968,48.021,5.431,47.359,5.431z"/>
			<rect x="31.862" y="12.667" fill="#767875" width="2.937" height="4.625"/>
			<rect x="40.211" y="12.667" fill="#767875" width="2.936" height="4.625"/>
			<rect x="15.167" y="10.472" fill="#767875" width="2.937" height="3.07"/>
			<path fill="#767875" d="M23.515,8.688v12.557c1.136-0.181,2.143-0.562,2.937-1.184V9.887C25.657,9.261,24.65,8.873,23.515,8.688z
				"/>
			<rect x="15.167" y="16.387" fill="#767875" width="2.937" height="3.071"/>
			<path fill="#767875" d="M14.287,10.472c-0.473,0-0.856,1.061-0.856,1.535c0,0.473,0.383,1.535,0.856,1.535h0.88v-3.07H14.287z"/>
			<path fill="#767875" d="M14.287,16.387c-0.473,0-0.856,1.064-0.856,1.536c0,0.473,0.383,1.535,0.856,1.535h0.88v-3.071H14.287z"
				/>
			<path fill="#767875" d="M21.849,8.545h-3.424v1.927h-0.321v3.07h0.321v2.845h-0.321v3.071h0.321v1.928h3.424
				c0.58,0,1.132-0.056,1.666-0.141V8.688C22.98,8.602,22.428,8.545,21.849,8.545z"/>
			<path fill="#767875" d="M28.139,12.667c-0.247-1.22-0.854-2.124-1.688-2.78v10.175c0.833-0.651,1.44-1.549,1.688-2.77h3.724
				v-4.625H28.139z"/>
			<rect x="34.799" y="12.667" fill="#767875" width="5.412" height="4.625"/>
			<rect x="43.146" y="12.667" fill="#767875" width="2.314" height="4.625"/>
		</g>
		<g opacity="0.15">
			<g>
				<g>
					<linearGradient id="SVGID_1_" gradientUnits="userSpaceOnUse" x1="13.4307" y1="11.7725" x2="45.4609" y2="11.7725">
						<stop  offset="0" style="stop-color:#FFFFFF"/>
						<stop  offset="1" style="stop-color:#FFFFFF"/>
					</linearGradient>
					<path fill="url(#SVGID_1_)" d="M28.139,12.667c-0.593-2.931-3.185-4.121-6.29-4.121h-3.424v1.927h-4.138
						c-0.473,0-0.856,1.061-0.856,1.535c0,0.473,0.383,1.535,0.856,1.535h4.138V15h27.037v-2.333H28.139z"/>
				</g>
			</g>
		</g>
	</g>
</g>
<g id="Charge_7_" display="none">
	<path display="inline" fill="#767875" d="M49.08,0.034H9.233c-2.712,0-4.919,2.207-4.919,4.92v4.202h-2.27
		C0.917,9.156,0,10.073,0,11.2v8.521c0,1.127,0.917,2.043,2.044,2.043h2.27v3.258c0,2.713,2.207,4.92,4.919,4.92H49.08
		c2.713,0,4.92-2.207,4.92-4.92V4.954C54,2.241,51.793,0.034,49.08,0.034z M2.357,19.406v-7.893h1.957v7.893H2.357z M51.559,25.021
		c0,1.366-1.112,2.479-2.479,2.479H9.233c-1.366,0-2.478-1.112-2.478-2.479V4.954c0-1.367,1.112-2.479,2.478-2.479H49.08
		c1.366,0,2.479,1.112,2.479,2.479V25.021z"/>
</g>
<g id="_x30__x25__Charge" display="none">
	<g id="Charge_15_" display="inline">
		<g id="Charge_level_5_">
			<rect x="31.862" y="12.667" fill="#767875" width="2.937" height="4.625"/>
			<rect x="40.211" y="12.667" fill="#767875" width="2.936" height="4.625"/>
			<rect x="15.167" y="10.472" fill="#767875" width="2.937" height="3.07"/>
			<path fill="#767875" d="M23.515,8.688v12.557c1.136-0.181,2.143-0.562,2.937-1.184V9.887C25.657,9.261,24.65,8.873,23.515,8.688z
				"/>
			<rect x="15.167" y="16.387" fill="#767875" width="2.937" height="3.071"/>
			<path fill="#767875" d="M14.287,10.472c-0.473,0-0.856,1.061-0.856,1.535c0,0.473,0.383,1.535,0.856,1.535h0.88v-3.07H14.287z"/>
			<path fill="#767875" d="M14.287,16.387c-0.473,0-0.856,1.064-0.856,1.536c0,0.473,0.383,1.535,0.856,1.535h0.88v-3.071H14.287z"
				/>
			<path fill="#767875" d="M21.849,8.545h-3.424v1.927h-0.321v3.07h0.321v2.845h-0.321v3.071h0.321v1.928h3.424
				c0.58,0,1.132-0.056,1.666-0.141V8.688C22.98,8.602,22.428,8.545,21.849,8.545z"/>
			<path fill="#767875" d="M28.139,12.667c-0.247-1.22-0.854-2.124-1.688-2.78v10.175c0.833-0.651,1.44-1.549,1.688-2.77h3.724
				v-4.625H28.139z"/>
			<rect x="34.799" y="12.667" fill="#767875" width="5.412" height="4.625"/>
			<rect x="43.146" y="12.667" fill="#767875" width="2.314" height="4.625"/>
		</g>
		<g id="Gloss_11_" opacity="0.15">
			<g>
				<g>
					<linearGradient id="SVGID_2_" gradientUnits="userSpaceOnUse" x1="13.4307" y1="11.7725" x2="45.4609" y2="11.7725">
						<stop  offset="0" style="stop-color:#FFFFFF"/>
						<stop  offset="1" style="stop-color:#FFFFFF"/>
					</linearGradient>
					<path fill="url(#SVGID_2_)" d="M28.139,12.667c-0.593-2.931-3.185-4.121-6.29-4.121h-3.424v1.927h-4.138
						c-0.473,0-0.856,1.061-0.856,1.535c0,0.473,0.383,1.535,0.856,1.535h4.138V15h27.037v-2.333H28.139z"/>
				</g>
			</g>
		</g>
	</g>
	<path display="inline" fill="#767875" d="M49.08,0.034H9.233c-2.712,0-4.919,2.207-4.919,4.92v4.202h-2.27
		C0.917,9.156,0,10.073,0,11.2v8.521c0,1.127,0.917,2.043,2.044,2.043h2.27v3.258c0,2.713,2.207,4.92,4.919,4.92H49.08
		c2.713,0,4.92-2.207,4.92-4.92V4.954C54,2.241,51.793,0.034,49.08,0.034z M2.357,19.406v-7.893h1.957v7.893H2.357z M51.559,25.021
		c0,1.366-1.112,2.479-2.479,2.479H9.233c-1.366,0-2.478-1.112-2.478-2.479V4.954c0-1.367,1.112-2.479,2.478-2.479H49.08
		c1.366,0,2.479,1.112,2.479,2.479V25.021z"/>
</g>
<g id="_x32_0_x25__Charge" display="none">
	<g id="Charge_14_" display="inline">
		<g id="Charge_level_4_">
			<path fill="#ED1C24" d="M47.359,5.431h-3.014c-0.662,0-1.199,0.537-1.199,1.198v4.037h2.314c1.104,0,2,0.896,2,2v4.625
				c0,1.104-0.896,2-2,2h-2.314v4.009c0,0.662,0.537,1.199,1.199,1.199h3.014c0.662,0,1.199-0.537,1.199-1.199V6.629
				C48.559,5.968,48.021,5.431,47.359,5.431z"/>
			<rect x="31.862" y="12.667" fill="#767875" width="2.937" height="4.625"/>
			<rect x="40.211" y="12.667" fill="#767875" width="2.936" height="4.625"/>
			<rect x="15.167" y="10.472" fill="#767875" width="2.937" height="3.07"/>
			<path fill="#767875" d="M23.515,8.688v12.557c1.136-0.181,2.143-0.562,2.937-1.184V9.887C25.657,9.261,24.65,8.873,23.515,8.688z
				"/>
			<rect x="15.167" y="16.387" fill="#767875" width="2.937" height="3.071"/>
			<path fill="#767875" d="M14.287,10.472c-0.473,0-0.856,1.061-0.856,1.535c0,0.473,0.383,1.535,0.856,1.535h0.88v-3.07H14.287z"/>
			<path fill="#767875" d="M14.287,16.387c-0.473,0-0.856,1.064-0.856,1.536c0,0.473,0.383,1.535,0.856,1.535h0.88v-3.071H14.287z"
				/>
			<path fill="#767875" d="M21.849,8.545h-3.424v1.927h-0.321v3.07h0.321v2.845h-0.321v3.071h0.321v1.928h3.424
				c0.58,0,1.132-0.056,1.666-0.141V8.688C22.98,8.602,22.428,8.545,21.849,8.545z"/>
			<path fill="#767875" d="M28.139,12.667c-0.247-1.22-0.854-2.124-1.688-2.78v10.175c0.833-0.651,1.44-1.549,1.688-2.77h3.724
				v-4.625H28.139z"/>
			<rect x="34.799" y="12.667" fill="#767875" width="5.412" height="4.625"/>
			<rect x="43.146" y="12.667" fill="#767875" width="2.314" height="4.625"/>
		</g>
		<g id="Gloss_9_" opacity="0.15">
			<g>
				<g>
					<linearGradient id="SVGID_3_" gradientUnits="userSpaceOnUse" x1="13.4307" y1="11.7725" x2="45.4609" y2="11.7725">
						<stop  offset="0" style="stop-color:#FFFFFF"/>
						<stop  offset="1" style="stop-color:#FFFFFF"/>
					</linearGradient>
					<path fill="url(#SVGID_3_)" d="M28.139,12.667c-0.593-2.931-3.185-4.121-6.29-4.121h-3.424v1.927h-4.138
						c-0.473,0-0.856,1.061-0.856,1.535c0,0.473,0.383,1.535,0.856,1.535h4.138V15h27.037v-2.333H28.139z"/>
				</g>
			</g>
		</g>
	</g>
	<path display="inline" fill="#767875" d="M49.08,0.034H9.233c-2.712,0-4.919,2.207-4.919,4.92v4.202h-2.27
		C0.917,9.156,0,10.073,0,11.2v8.521c0,1.127,0.917,2.043,2.044,2.043h2.27v3.258c0,2.713,2.207,4.92,4.919,4.92H49.08
		c2.713,0,4.92-2.207,4.92-4.92V4.954C54,2.241,51.793,0.034,49.08,0.034z M2.357,19.406v-7.893h1.957v7.893H2.357z M51.559,25.021
		c0,1.366-1.112,2.479-2.479,2.479H9.233c-1.366,0-2.478-1.112-2.478-2.479V4.954c0-1.367,1.112-2.479,2.478-2.479H49.08
		c1.366,0,2.479,1.112,2.479,2.479V25.021z"/>
</g>
<g id="_x34_0_x25__Charge">
	<g id="Charge_13_">
		<g id="Charge_level_3_">
			<path fill="#F26522" d="M34.799,23.301c0,0.662,0.537,1.199,1.199,1.199h3.014c0.662,0,1.199-0.537,1.199-1.199v-4.009h-5.412
				V23.301z"/>
			<path fill="#F26522" d="M40.211,6.629c0-0.662-0.537-1.198-1.199-1.198h-3.014c-0.662,0-1.199,0.537-1.199,1.198v4.037h5.412
				V6.629z"/>
			<path fill="#F26522" d="M47.359,5.431h-3.014c-0.662,0-1.199,0.537-1.199,1.198v4.037h2.314c1.104,0,2,0.896,2,2v4.625
				c0,1.104-0.896,2-2,2h-2.314v4.009c0,0.662,0.537,1.199,1.199,1.199h3.014c0.662,0,1.199-0.537,1.199-1.199V6.629
				C48.559,5.968,48.021,5.431,47.359,5.431z"/>
			<rect x="31.862" y="12.667" fill="#767875" width="2.937" height="4.625"/>
			<rect x="40.211" y="12.667" fill="#767875" width="2.936" height="4.625"/>
			<rect x="15.167" y="10.472" fill="#767875" width="2.937" height="3.07"/>
			<path fill="#767875" d="M23.515,8.688v12.557c1.136-0.181,2.143-0.562,2.937-1.184V9.887C25.657,9.261,24.65,8.873,23.515,8.688z
				"/>
			<rect x="15.167" y="16.387" fill="#767875" width="2.937" height="3.071"/>
			<path fill="#767875" d="M14.287,10.472c-0.473,0-0.856,1.061-0.856,1.535c0,0.473,0.383,1.535,0.856,1.535h0.88v-3.07H14.287z"/>
			<path fill="#767875" d="M14.287,16.387c-0.473,0-0.856,1.064-0.856,1.536c0,0.473,0.383,1.535,0.856,1.535h0.88v-3.071H14.287z"
				/>
			<path fill="#767875" d="M21.849,8.545h-3.424v1.927h-0.321v3.07h0.321v2.845h-0.321v3.071h0.321v1.928h3.424
				c0.58,0,1.132-0.056,1.666-0.141V8.688C22.98,8.602,22.428,8.545,21.849,8.545z"/>
			<path fill="#767875" d="M28.139,12.667c-0.247-1.22-0.854-2.124-1.688-2.78v10.175c0.833-0.651,1.44-1.549,1.688-2.77h3.724
				v-4.625H28.139z"/>
			<rect x="34.799" y="12.667" fill="#767875" width="5.412" height="4.625"/>
			<rect x="43.146" y="12.667" fill="#767875" width="2.314" height="4.625"/>
		</g>
		<g id="Gloss_7_" opacity="0.15">
			<g>
				<g>
					<linearGradient id="SVGID_4_" gradientUnits="userSpaceOnUse" x1="13.4307" y1="11.7725" x2="45.4609" y2="11.7725">
						<stop  offset="0" style="stop-color:#FFFFFF"/>
						<stop  offset="1" style="stop-color:#FFFFFF"/>
					</linearGradient>
					<path fill="url(#SVGID_4_)" d="M28.139,12.667c-0.593-2.931-3.185-4.121-6.29-4.121h-3.424v1.927h-4.138
						c-0.473,0-0.856,1.061-0.856,1.535c0,0.473,0.383,1.535,0.856,1.535h4.138V15h27.037v-2.333H28.139z"/>
				</g>
			</g>
		</g>
	</g>
	<path fill="#767875" d="M49.08,0.034H9.233c-2.712,0-4.919,2.207-4.919,4.92v4.202h-2.27C0.917,9.156,0,10.073,0,11.2v8.521
		c0,1.127,0.917,2.043,2.044,2.043h2.27v3.258c0,2.713,2.207,4.92,4.919,4.92H49.08c2.713,0,4.92-2.207,4.92-4.92V4.954
		C54,2.241,51.793,0.034,49.08,0.034z M2.357,19.406v-7.893h1.957v7.893H2.357z M51.559,25.021c0,1.366-1.112,2.479-2.479,2.479
		H9.233c-1.366,0-2.478-1.112-2.478-2.479V4.954c0-1.367,1.112-2.479,2.478-2.479H49.08c1.366,0,2.479,1.112,2.479,2.479V25.021z"/>
</g>
<g id="_x36_0_x25__Charge" display="none">
	<g id="Charge_12_" display="inline">
		<g id="Charge_level_2_">
			<path fill="#767875" d="M29.575,10.667h2.287V6.629c0-0.662-0.536-1.198-1.198-1.198H27.65c-0.662,0-1.199,0.537-1.199,1.198
				v0.907C27.859,8.242,28.936,9.298,29.575,10.667z"/>
			<path fill="#767875" d="M26.451,22.426v0.875c0,0.662,0.537,1.199,1.199,1.199h3.014c0.662,0,1.198-0.537,1.198-1.199v-4.009
				h-2.28C28.944,20.678,27.871,21.73,26.451,22.426z"/>
			<path fill="#767875" d="M34.799,23.301c0,0.662,0.537,1.199,1.199,1.199h3.014c0.662,0,1.199-0.537,1.199-1.199v-4.009h-5.412
				V23.301z"/>
			<path fill="#767875" d="M40.211,6.629c0-0.662-0.537-1.198-1.199-1.198h-3.014c-0.662,0-1.199,0.537-1.199,1.198v4.037h5.412
				V6.629z"/>
			<path fill="#767875" d="M47.359,5.431h-3.014c-0.662,0-1.199,0.537-1.199,1.198v4.037h2.314c1.104,0,2,0.896,2,2v4.625
				c0,1.104-0.896,2-2,2h-2.314v4.009c0,0.662,0.537,1.199,1.199,1.199h3.014c0.662,0,1.199-0.537,1.199-1.199V6.629
				C48.559,5.968,48.021,5.431,47.359,5.431z"/>
			<rect x="31.862" y="12.667" fill="#767875" width="2.937" height="4.625"/>
			<rect x="40.211" y="12.667" fill="#767875" width="2.936" height="4.625"/>
			<rect x="15.167" y="10.472" fill="#767875" width="2.937" height="3.07"/>
			<path fill="#767875" d="M23.515,8.688v12.557c1.136-0.181,2.143-0.562,2.937-1.184V9.887C25.657,9.261,24.65,8.873,23.515,8.688z
				"/>
			<rect x="15.167" y="16.387" fill="#767875" width="2.937" height="3.071"/>
			<path fill="#767875" d="M14.287,10.472c-0.473,0-0.856,1.061-0.856,1.535c0,0.473,0.383,1.535,0.856,1.535h0.88v-3.07H14.287z"/>
			<path fill="#767875" d="M14.287,16.387c-0.473,0-0.856,1.064-0.856,1.536c0,0.473,0.383,1.535,0.856,1.535h0.88v-3.071H14.287z"
				/>
			<path fill="#767875" d="M21.849,8.545h-3.424v1.927h-0.321v3.07h0.321v2.845h-0.321v3.071h0.321v1.928h3.424
				c0.58,0,1.132-0.056,1.666-0.141V8.688C22.98,8.602,22.428,8.545,21.849,8.545z"/>
			<path fill="#767875" d="M28.139,12.667c-0.247-1.22-0.854-2.124-1.688-2.78v10.175c0.833-0.651,1.44-1.549,1.688-2.77h3.724
				v-4.625H28.139z"/>
			<rect x="34.799" y="12.667" fill="#767875" width="5.412" height="4.625"/>
			<rect x="43.146" y="12.667" fill="#767875" width="2.314" height="4.625"/>
		</g>
		<g id="Gloss_5_" opacity="0.15">
			<g>
				<g>
					<linearGradient id="SVGID_5_" gradientUnits="userSpaceOnUse" x1="13.4307" y1="11.7725" x2="45.4609" y2="11.7725">
						<stop  offset="0" style="stop-color:#FFFFFF"/>
						<stop  offset="1" style="stop-color:#FFFFFF"/>
					</linearGradient>
					<path fill="url(#SVGID_5_)" d="M28.139,12.667c-0.593-2.931-3.185-4.121-6.29-4.121h-3.424v1.927h-4.138
						c-0.473,0-0.856,1.061-0.856,1.535c0,0.473,0.383,1.535,0.856,1.535h4.138V15h27.037v-2.333H28.139z"/>
				</g>
			</g>
		</g>
	</g>
	<path display="inline" fill="#767875" d="M49.08,0.034H9.233c-2.712,0-4.919,2.207-4.919,4.92v4.202h-2.27
		C0.917,9.156,0,10.073,0,11.2v8.521c0,1.127,0.917,2.043,2.044,2.043h2.27v3.258c0,2.713,2.207,4.92,4.919,4.92H49.08
		c2.713,0,4.92-2.207,4.92-4.92V4.954C54,2.241,51.793,0.034,49.08,0.034z M2.357,19.406v-7.893h1.957v7.893H2.357z M51.559,25.021
		c0,1.366-1.112,2.479-2.479,2.479H9.233c-1.366,0-2.478-1.112-2.478-2.479V4.954c0-1.367,1.112-2.479,2.478-2.479H49.08
		c1.366,0,2.479,1.112,2.479,2.479V25.021z"/>
</g>
<g id="_x38_0_x25__Charge" display="none">
	<g id="Charge_11_" display="inline">
		<g id="Charge_level_1_">
			<path fill="#767875" d="M18.424,23.386c-0.106,0-0.208-0.015-0.31-0.03c0.03,0.635,0.546,1.145,1.188,1.145h3.015
				c0.661,0,1.198-0.537,1.198-1.199v-0.03c-0.532,0.068-1.082,0.115-1.666,0.115H18.424z"/>
			<path fill="#767875" d="M21.849,6.545c0.583,0,1.132,0.049,1.666,0.122V6.629c0-0.662-0.537-1.198-1.198-1.198h-3.015
				c-0.642,0-1.158,0.509-1.188,1.145c0.102-0.016,0.204-0.031,0.31-0.031H21.849z"/>
			<path fill="#767875" d="M29.575,10.667h2.287V6.629c0-0.662-0.536-1.198-1.198-1.198H27.65c-0.662,0-1.199,0.537-1.199,1.198
				v0.907C27.859,8.242,28.936,9.298,29.575,10.667z"/>
			<path fill="#767875" d="M26.451,22.426v0.875c0,0.662,0.537,1.199,1.199,1.199h3.014c0.662,0,1.198-0.537,1.198-1.199v-4.009
				h-2.28C28.944,20.678,27.871,21.73,26.451,22.426z"/>
			<path fill="#767875" d="M34.799,23.301c0,0.662,0.537,1.199,1.199,1.199h3.014c0.662,0,1.199-0.537,1.199-1.199v-4.009h-5.412
				V23.301z"/>
			<path fill="#767875" d="M40.211,6.629c0-0.662-0.537-1.198-1.199-1.198h-3.014c-0.662,0-1.199,0.537-1.199,1.198v4.037h5.412
				V6.629z"/>
			<path fill="#767875" d="M47.359,5.431h-3.014c-0.662,0-1.199,0.537-1.199,1.198v4.037h2.314c1.104,0,2,0.896,2,2v4.625
				c0,1.104-0.896,2-2,2h-2.314v4.009c0,0.662,0.537,1.199,1.199,1.199h3.014c0.662,0,1.199-0.537,1.199-1.199V6.629
				C48.559,5.968,48.021,5.431,47.359,5.431z"/>
			<rect x="31.862" y="12.667" fill="#767875" width="2.937" height="4.625"/>
			<rect x="40.211" y="12.667" fill="#767875" width="2.936" height="4.625"/>
			<rect x="15.167" y="10.472" fill="#767875" width="2.937" height="3.07"/>
			<path fill="#767875" d="M23.515,8.688v12.557c1.136-0.181,2.143-0.562,2.937-1.184V9.887C25.657,9.261,24.65,8.873,23.515,8.688z
				"/>
			<rect x="15.167" y="16.387" fill="#767875" width="2.937" height="3.071"/>
			<path fill="#767875" d="M14.287,10.472c-0.473,0-0.856,1.061-0.856,1.535c0,0.473,0.383,1.535,0.856,1.535h0.88v-3.07H14.287z"/>
			<path fill="#767875" d="M14.287,16.387c-0.473,0-0.856,1.064-0.856,1.536c0,0.473,0.383,1.535,0.856,1.535h0.88v-3.071H14.287z"
				/>
			<path fill="#767875" d="M21.849,8.545h-3.424v1.927h-0.321v3.07h0.321v2.845h-0.321v3.071h0.321v1.928h3.424
				c0.58,0,1.132-0.056,1.666-0.141V8.688C22.98,8.602,22.428,8.545,21.849,8.545z"/>
			<path fill="#767875" d="M28.139,12.667c-0.247-1.22-0.854-2.124-1.688-2.78v10.175c0.833-0.651,1.44-1.549,1.688-2.77h3.724
				v-4.625H28.139z"/>
			<rect x="34.799" y="12.667" fill="#767875" width="5.412" height="4.625"/>
			<rect x="43.146" y="12.667" fill="#767875" width="2.314" height="4.625"/>
		</g>
		<g id="Gloss_3_" opacity="0.15">
			<g>
				<g>
					<linearGradient id="SVGID_6_" gradientUnits="userSpaceOnUse" x1="13.4307" y1="11.7725" x2="45.4609" y2="11.7725">
						<stop  offset="0" style="stop-color:#FFFFFF"/>
						<stop  offset="1" style="stop-color:#FFFFFF"/>
					</linearGradient>
					<path fill="url(#SVGID_6_)" d="M28.139,12.667c-0.593-2.931-3.185-4.121-6.29-4.121h-3.424v1.927h-4.138
						c-0.473,0-0.856,1.061-0.856,1.535c0,0.473,0.383,1.535,0.856,1.535h4.138V15h27.037v-2.333H28.139z"/>
				</g>
			</g>
		</g>
	</g>
	<path display="inline" fill="#767875" d="M49.08,0.034H9.233c-2.712,0-4.919,2.207-4.919,4.92v4.202h-2.27
		C0.917,9.156,0,10.073,0,11.2v8.521c0,1.127,0.917,2.043,2.044,2.043h2.27v3.258c0,2.713,2.207,4.92,4.919,4.92H49.08
		c2.713,0,4.92-2.207,4.92-4.92V4.954C54,2.241,51.793,0.034,49.08,0.034z M2.357,19.406v-7.893h1.957v7.893H2.357z M51.559,25.021
		c0,1.366-1.112,2.479-2.479,2.479H9.233c-1.366,0-2.478-1.112-2.478-2.479V4.954c0-1.367,1.112-2.479,2.478-2.479H49.08
		c1.366,0,2.479,1.112,2.479,2.479V25.021z"/>
</g>
<g id="_x31_00_x25__charge" display="none">
	<g id="Charge_8_" display="inline">
		<g id="Charge_level">
			<path fill="#767875" d="M11.431,17.923c0-0.846,0.394-2.194,1.292-2.958c-0.898-0.764-1.292-2.112-1.292-2.958
				c0-1.232,0.838-3.535,2.856-3.535h0.88V6.629c0-0.662-0.537-1.198-1.198-1.198h-3.014c-0.662,0-1.199,0.537-1.199,1.198v16.671
				c0,0.662,0.537,1.199,1.199,1.199h3.014c0.662,0,1.198-0.537,1.198-1.199v-1.843h-0.88
				C12.269,21.458,11.431,19.155,11.431,17.923z"/>
			<path fill="#767875" d="M18.424,23.386c-0.106,0-0.208-0.015-0.31-0.03c0.03,0.635,0.546,1.145,1.188,1.145h3.015
				c0.661,0,1.198-0.537,1.198-1.199v-0.03c-0.532,0.068-1.082,0.115-1.666,0.115H18.424z"/>
			<path fill="#767875" d="M21.849,6.545c0.583,0,1.132,0.049,1.666,0.122V6.629c0-0.662-0.537-1.198-1.198-1.198h-3.015
				c-0.642,0-1.158,0.509-1.188,1.145c0.102-0.016,0.204-0.031,0.31-0.031H21.849z"/>
			<path fill="#767875" d="M29.575,10.667h2.287V6.629c0-0.662-0.536-1.198-1.198-1.198H27.65c-0.662,0-1.199,0.537-1.199,1.198
				v0.907C27.859,8.242,28.936,9.298,29.575,10.667z"/>
			<path fill="#767875" d="M26.451,22.426v0.875c0,0.662,0.537,1.199,1.199,1.199h3.014c0.662,0,1.198-0.537,1.198-1.199v-4.009
				h-2.28C28.944,20.678,27.871,21.73,26.451,22.426z"/>
			<path fill="#767875" d="M34.799,23.301c0,0.662,0.537,1.199,1.199,1.199h3.014c0.662,0,1.199-0.537,1.199-1.199v-4.009h-5.412
				V23.301z"/>
			<path fill="#767875" d="M40.211,6.629c0-0.662-0.537-1.198-1.199-1.198h-3.014c-0.662,0-1.199,0.537-1.199,1.198v4.037h5.412
				V6.629z"/>
			<path fill="#767875" d="M47.359,5.431h-3.014c-0.662,0-1.199,0.537-1.199,1.198v4.037h2.314c1.104,0,2,0.896,2,2v4.625
				c0,1.104-0.896,2-2,2h-2.314v4.009c0,0.662,0.537,1.199,1.199,1.199h3.014c0.662,0,1.199-0.537,1.199-1.199V6.629
				C48.559,5.968,48.021,5.431,47.359,5.431z"/>
			<rect x="31.862" y="12.667" fill="#767875" width="2.937" height="4.625"/>
			<rect x="40.211" y="12.667" fill="#767875" width="2.936" height="4.625"/>
			<rect x="15.167" y="10.472" fill="#767875" width="2.937" height="3.07"/>
			<path fill="#767875" d="M23.515,8.688v12.557c1.136-0.181,2.143-0.562,2.937-1.184V9.887C25.657,9.261,24.65,8.873,23.515,8.688z
				"/>
			<rect x="15.167" y="16.387" fill="#767875" width="2.937" height="3.071"/>
			<path fill="#767875" d="M14.287,10.472c-0.473,0-0.856,1.061-0.856,1.535c0,0.473,0.383,1.535,0.856,1.535h0.88v-3.07H14.287z"/>
			<path fill="#767875" d="M14.287,16.387c-0.473,0-0.856,1.064-0.856,1.536c0,0.473,0.383,1.535,0.856,1.535h0.88v-3.071H14.287z"
				/>
			<path fill="#767875" d="M21.849,8.545h-3.424v1.927h-0.321v3.07h0.321v2.845h-0.321v3.071h0.321v1.928h3.424
				c0.58,0,1.132-0.056,1.666-0.141V8.688C22.98,8.602,22.428,8.545,21.849,8.545z"/>
			<path fill="#767875" d="M28.139,12.667c-0.247-1.22-0.854-2.124-1.688-2.78v10.175c0.833-0.651,1.44-1.549,1.688-2.77h3.724
				v-4.625H28.139z"/>
			<rect x="34.799" y="12.667" fill="#767875" width="5.412" height="4.625"/>
			<rect x="43.146" y="12.667" fill="#767875" width="2.314" height="4.625"/>
		</g>
		<g id="Gloss_2_" opacity="0.15">
			<g>
				<g>
					<linearGradient id="SVGID_7_" gradientUnits="userSpaceOnUse" x1="13.4307" y1="11.7725" x2="45.4609" y2="11.7725">
						<stop  offset="0" style="stop-color:#FFFFFF"/>
						<stop  offset="1" style="stop-color:#FFFFFF"/>
					</linearGradient>
					<path fill="url(#SVGID_7_)" d="M28.139,12.667c-0.593-2.931-3.185-4.121-6.29-4.121h-3.424v1.927h-4.138
						c-0.473,0-0.856,1.061-0.856,1.535c0,0.473,0.383,1.535,0.856,1.535h4.138V15h27.037v-2.333H28.139z"/>
				</g>
			</g>
		</g>
	</g>
	<path display="inline" fill="#767875" d="M49.08,0.034H9.233c-2.712,0-4.919,2.207-4.919,4.92v4.202h-2.27
		C0.917,9.156,0,10.073,0,11.2v8.521c0,1.127,0.917,2.043,2.044,2.043h2.27v3.258c0,2.713,2.207,4.92,4.919,4.92H49.08
		c2.713,0,4.92-2.207,4.92-4.92V4.954C54,2.241,51.793,0.034,49.08,0.034z M2.357,19.406v-7.893h1.957v7.893H2.357z M51.559,25.021
		c0,1.366-1.112,2.479-2.479,2.479H9.233c-1.366,0-2.478-1.112-2.478-2.479V4.954c0-1.367,1.112-2.479,2.478-2.479H49.08
		c1.366,0,2.479,1.112,2.479,2.479V25.021z"/>
</g>
<g id="Gloss" display="none">
	<g display="inline">
		<linearGradient id="SVGID_8_" gradientUnits="userSpaceOnUse" x1="9.7554" y1="10.2158" x2="15.1665" y2="10.2158">
			<stop  offset="0" style="stop-color:#FFFFFF"/>
			<stop  offset="1" style="stop-color:#FFFFFF"/>
		</linearGradient>
		<path opacity="0.2" fill="url(#SVGID_8_)" d="M13.968,5.431h-3.014c-0.662,0-1.199,0.537-1.199,1.198V15h5.411V6.629
			C15.167,5.968,14.63,5.431,13.968,5.431z"/>
	</g>
	<g display="inline">
		<linearGradient id="SVGID_9_" gradientUnits="userSpaceOnUse" x1="18.1035" y1="10.2158" x2="23.5146" y2="10.2158">
			<stop  offset="0" style="stop-color:#FFFFFF"/>
			<stop  offset="1" style="stop-color:#FFFFFF"/>
		</linearGradient>
		<path opacity="0.2" fill="url(#SVGID_9_)" d="M22.316,5.431h-3.015c-0.661,0-1.198,0.537-1.198,1.198V15h5.411V6.629
			C23.515,5.968,22.978,5.431,22.316,5.431z"/>
	</g>
	<g display="inline">
		<linearGradient id="SVGID_10_" gradientUnits="userSpaceOnUse" x1="26.4512" y1="10.2158" x2="31.8623" y2="10.2158">
			<stop  offset="0" style="stop-color:#FFFFFF"/>
			<stop  offset="1" style="stop-color:#FFFFFF"/>
		</linearGradient>
		<path opacity="0.2" fill="url(#SVGID_10_)" d="M30.664,5.431H27.65c-0.662,0-1.199,0.537-1.199,1.198V15h5.411V6.629
			C31.862,5.968,31.326,5.431,30.664,5.431z"/>
	</g>
	<g display="inline">
		<linearGradient id="SVGID_11_" gradientUnits="userSpaceOnUse" x1="34.7988" y1="10.2158" x2="40.2109" y2="10.2158">
			<stop  offset="0" style="stop-color:#FFFFFF"/>
			<stop  offset="1" style="stop-color:#FFFFFF"/>
		</linearGradient>
		<path opacity="0.2" fill="url(#SVGID_11_)" d="M39.012,5.431h-3.014c-0.662,0-1.199,0.537-1.199,1.198V15h5.412V6.629
			C40.211,5.968,39.674,5.431,39.012,5.431z"/>
	</g>
	<g display="inline">
		<linearGradient id="SVGID_12_" gradientUnits="userSpaceOnUse" x1="43.1465" y1="10.2158" x2="48.5586" y2="10.2158">
			<stop  offset="0" style="stop-color:#FFFFFF"/>
			<stop  offset="1" style="stop-color:#FFFFFF"/>
		</linearGradient>
		<path opacity="0.2" fill="url(#SVGID_12_)" d="M47.359,5.431h-3.014c-0.662,0-1.199,0.537-1.199,1.198V15h5.412V6.629
			C48.559,5.968,48.021,5.431,47.359,5.431z"/>
	</g>
	<linearGradient id="SVGID_13_" gradientUnits="userSpaceOnUse" x1="2.3574" y1="13.5068" x2="4.314" y2="13.5068">
		<stop  offset="0" style="stop-color:#FFFFFF"/>
		<stop  offset="1" style="stop-color:#FFFFFF"/>
	</linearGradient>
	<polyline display="inline" fill="url(#SVGID_13_)" points="4.314,11.513 2.357,11.513 2.357,15.5 	"/>
	<g display="inline">
		<linearGradient id="SVGID_14_" gradientUnits="userSpaceOnUse" x1="0" y1="7.5171" x2="54" y2="7.5171">
			<stop  offset="0" style="stop-color:#FFFFFF"/>
			<stop  offset="1" style="stop-color:#FFFFFF"/>
		</linearGradient>
		<path opacity="0.2" fill="url(#SVGID_14_)" d="M49.08,0.034H9.233c-2.712,0-4.919,2.207-4.919,4.92v4.202h-2.27
			C0.917,9.156,0,10.073,0,11.2V15h2.357v-3.487h1.957V15h2.441V4.954c0-1.367,1.112-2.479,2.478-2.479H49.08
			c1.366,0,2.479,1.112,2.479,2.479V15H54V4.954C54,2.241,51.793,0.034,49.08,0.034z"/>
	</g>
</g>
<g id="Charge_single" display="none">
	<g display="inline">
		<path id="Charge_10_" fill="#767875" d="M18.424,10.472h-4.138c-0.473,0-0.856,1.061-0.856,1.535c0,0.473,0.383,1.535,0.856,1.535
			h4.138v2.845h-4.138c-0.473,0-0.856,1.064-0.856,1.536c0,0.473,0.383,1.535,0.856,1.535h4.138v1.928h3.424
			c3.105,0,5.697-1.163,6.29-4.094h17.322v-4.625H28.139c-0.593-2.931-3.185-4.121-6.29-4.121h-3.424V10.472z"/>
		<path id="Charge_9_" fill="#FFFFFF" d="M21.849,8.545c3.105,0,5.697,1.19,6.29,4.121h17.322v4.625H28.139
			c-0.593,2.931-3.185,4.094-6.29,4.094h-3.424v-1.928h-4.138c-0.473,0-0.856-1.062-0.856-1.535c0-0.472,0.383-1.536,0.856-1.536
			h4.138v-2.845h-4.138c-0.473,0-0.856-1.062-0.856-1.535c0-0.474,0.383-1.535,0.856-1.535h4.138V8.545H21.849 M21.849,6.545h-3.424
			c-1.08,0-1.96,0.856-1.999,1.927h-2.139c-2.018,0-2.856,2.302-2.856,3.535c0,0.845,0.394,2.194,1.292,2.958
			c-0.898,0.764-1.292,2.113-1.292,2.958c0,1.232,0.838,3.535,2.856,3.535h2.139c0.038,1.071,0.918,1.928,1.999,1.928h3.424
			c3.795,0,6.526-1.471,7.733-4.094h15.879c1.104,0,2-0.896,2-2v-4.625c0-1.104-0.896-2-2-2H29.575
			C28.354,8.057,25.581,6.545,21.849,6.545L21.849,6.545z"/>
	</g>
	<g display="inline" opacity="0.15">
		<g>
			<g>
				<linearGradient id="SVGID_15_" gradientUnits="userSpaceOnUse" x1="13.4307" y1="11.7725" x2="45.4609" y2="11.7725">
					<stop  offset="0" style="stop-color:#FFFFFF"/>
					<stop  offset="1" style="stop-color:#FFFFFF"/>
				</linearGradient>
				<path fill="url(#SVGID_15_)" d="M28.139,12.667c-0.593-2.931-3.185-4.121-6.29-4.121h-3.424v1.927h-4.138
					c-0.473,0-0.856,1.061-0.856,1.535c0,0.473,0.383,1.535,0.856,1.535h4.138V15h27.037v-2.333H28.139z"/>
			</g>
		</g>
	</g>
</g>
<g id="Guides" display="none">
</g>
</svg>
