<?xml version="1.0"?>
<!DOCTYPE svg PUBLIC "-//W3C//DTD SVG 1.1//EN" "http://www.w3.org/Graphics/SVG/1.1/DTD/svg11.dtd">
<svg xmlns="http://www.w3.org/2000/svg" xmlns:xl="http://www.w3.org/1999/xlink" version="1.1" viewBox="52 56 328 328" width="328pt" height="328pt"><metadata xmlns:dc="http://purl.org/dc/elements/1.1/"><dc:date>2013-10-09 04:03Z</dc:date><!-- Produced by OmniGraffle Professional 5.4.2 --></metadata><defs><filter id="Shadow" filterUnits="userSpaceOnUse"><feGaussianBlur in="SourceAlpha" result="blur" stdDeviation="3.488"/><feOffset in="blur" result="offset" dx="0" dy="4"/><feFlood flood-color="black" flood-opacity=".75" result="flood"/><feComposite in="flood" in2="offset" operator="in"/></filter></defs><g stroke="none" stroke-opacity="1" stroke-dasharray="none" fill="none" fill-opacity="1"><title>Canvas 1</title><g><title>Layer 1</title><g><use xl:href="#id4_Graphic" filter="url(#Shadow)"/></g><g id="id4_Graphic"><path d="M 122 72 L 310 72 C 337.61424 72 360 94.38576 360 122 L 360 310 C 360 337.61424 337.61424 360 310 360 L 122 360 C 94.38576 360 72 337.61424 72 310 C 72 310 72 310 72 309.99999 L 72 122 C 72 94.38576 94.38576 72 122 72 C 122 72 122 72 122 72 Z" fill="white"/><path d="M 122 72 L 310 72 C 337.61424 72 360 94.38576 360 122 L 360 310 C 360 337.61424 337.61424 360 310 360 L 122 360 C 94.38576 360 72 337.61424 72 310 C 72 310 72 310 72 309.99999 L 72 122 C 72 94.38576 94.38576 72 122 72 C 122 72 122 72 122 72 Z" stroke="black" stroke-linecap="round" stroke-linejoin="round" stroke-width="1"/></g><circle cx="123" cy="123" r="27.000044" fill="#2a3563"/><circle cx="123" cy="216" r="27.000044" fill="#2a3563"/><circle cx="123" cy="309" r="27.000044" fill="#2a3563"/><circle cx="216" cy="123" r="27.000044" fill="#2a3563"/><circle cx="216" cy="216" r="27.000044" fill="#2a3563"/><circle cx="216" cy="309" r="27.000044" fill="#2a3563"/><circle cx="309" cy="123" r="27.000044" fill="#2a3563"/><circle cx="309" cy="216" r="27.000044" fill="#2a3563"/><circle cx="309" cy="309" r="27.000044" fill="#2a3563"/></g></g></svg>
